<svg xmlns="http://www.w3.org/2000/svg" width="500" height="500"><path d="M125 0h250c69 0 125 56 125 125v250c0 69-56 125-125 125H125C56 500 0 444 0 375V125C0 56 56 0 125 0z" style="fill:#eee"/><path d="m405 164.7 32 134.4c.5 1.4.6 2.9.3 4.3-.2 1.4-.8 2.8-1.7 3.9-.9 1.2-2 2.1-3.3 2.7-1.3.6-2.7.9-4.2.7h-25.5c-4.4 36.9-35.4 65.6-73 65.6s-68.6-28.6-73-65.6h-12.5c-4.4 37.4-35.8 66.3-73.8 66.3-38.1 0-69.5-29.1-73.8-66.5H71.7c-1.4.1-2.8-.2-4.1-.8-1.3-.6-2.4-1.5-3.3-2.6-.9-1.1-1.5-2.4-1.7-3.8-.3-1.4-.2-2.8.2-4.2l32.1-134.4c2.2-14.8 16.1-41.9 53.3-41.9 2.5 0 4.8 1 6.6 2.8 1.7 1.8 2.7 4.2 2.7 6.7s-1 4.9-2.7 6.7c-1.7 1.8-4.1 2.8-6.6 2.8-29.9 0-34.6 23.5-34.9 26.1L83.7 292h12.9c4.7-37 35.9-65.5 73.7-65.5 37.7 0 68.9 28.5 73.7 65.5l12.7.1c4.7-36.5 35.6-64.8 72.9-64.8 37.4 0 68.3 28.3 72.9 65v-.3h13.6l-29.5-124c-.4-2.6-4.9-26.1-34.9-26.1-2.5 0-4.8-1-6.6-2.8-1.7-1.8-2.7-4.2-2.7-6.7s1-4.9 2.7-6.7c1.7-1.8 4.1-2.8 6.6-2.8 37.2 0 51.1 27 53.3 41.8zM225.7 310.8c.5-2.9.7-5.9.7-9 0-3.4-.3-6.7-.8-9.9C221 265.2 198 245 170.4 245s-50.6 20.3-55.2 47c-.5 3.2-.8 6.5-.8 9.8 0 3 .2 6 .7 8.9 4.2 27.2 27.4 47.9 55.3 47.9s51-20.7 55.3-47.8zm158.5 0c.5-2.9.7-5.9.7-9 0-30.9-24.7-56-55.3-56s-55.3 25.1-55.3 56c0 3.1.2 6.1.7 9 4.2 26.7 27.1 47 54.5 47 27.6 0 50.4-20.4 54.7-47z" style="fill-rule:evenodd;clip-rule:evenodd"/></svg>