<svg xmlns="http://www.w3.org/2000/svg" width="500" height="500" viewBox="0 0 500 500">
  <style type="text/css">
    .st0{fill:#EEEEEE;}
    .st1{fill-rule:evenodd;clip-rule:evenodd;}
  </style>
  <g>
    <path class="st0" d="M125,0h250c69,0,125,56,125,125v250c0,69-56,125-125,125H125C56,500,0,444,0,375V125C0,56,56,0,125,0z"/>
    <path class="st1" d="M405,164.7l32,134.4c0.5,1.4,0.6,2.9,0.3,4.3c-0.2,1.4-0.8,2.8-1.7,3.9c-0.9,1.2-2,2.1-3.3,2.7
		c-1.3,0.6-2.7,0.9-4.2,0.7h-25.5c-4.4,36.9-35.4,65.6-73,65.6c-37.6,0-68.6-28.6-73-65.6h-12.5c-4.4,37.4-35.8,66.3-73.8,66.3
		c-38.1,0-69.5-29.1-73.8-66.5H71.7c-1.4,0.1-2.8-0.2-4.1-0.8c-1.3-0.6-2.4-1.5-3.3-2.6c-0.9-1.1-1.5-2.4-1.7-3.8
		c-0.3-1.4-0.2-2.8,0.2-4.2l32.1-134.4c2.2-14.8,16.1-41.9,53.3-41.9c2.5,0,4.8,1,6.6,2.8c1.7,1.8,2.7,4.2,2.7,6.7
		c0,2.5-1,4.9-2.7,6.7c-1.7,1.8-4.1,2.8-6.6,2.8c-29.9,0-34.6,23.5-34.9,26.1L83.7,292h12.9c4.7-37,35.9-65.5,73.7-65.5
		c37.7,0,68.9,28.5,73.7,65.5l12.7,0.1c4.7-36.5,35.6-64.8,72.9-64.8c37.4,0,68.3,28.3,72.9,65v-0.3h13.6l-29.5-124
		c-0.4-2.6-4.9-26.1-34.9-26.1c-2.5,0-4.8-1-6.6-2.8c-1.7-1.8-2.7-4.2-2.7-6.7c0-2.5,1-4.9,2.7-6.7c1.7-1.8,4.1-2.8,6.6-2.8
		C388.9,122.9,402.8,149.9,405,164.7z M225.7,310.8c0.5-2.9,0.7-5.9,0.7-9c0-3.4-0.3-6.7-0.8-9.9c-4.6-26.7-27.6-46.9-55.2-46.9
		c-27.6,0-50.6,20.3-55.2,47c-0.5,3.2-0.8,6.5-0.8,9.8c0,3,0.2,6,0.7,8.9c4.2,27.2,27.4,47.9,55.3,47.9
		C198.3,358.6,221.4,337.9,225.7,310.8z M384.2,310.8c0.5-2.9,0.7-5.9,0.7-9c0-30.9-24.7-56-55.3-56s-55.3,25.1-55.3,56
		c0,3.1,0.2,6.1,0.7,9c4.2,26.7,27.1,47,54.5,47C357.1,357.8,379.9,337.4,384.2,310.8z"/>
  </g>
</svg>
